<?xml version="1.0" encoding="UTF-8"?>
<!-- Created with Inkscape (http://www.inkscape.org/) -->
<svg width="777.64" height="687.29" version="1.1" viewBox="0 0 777.64 687.29" xmlns="http://www.w3.org/2000/svg">
 <g transform="translate(-111.91 -157.35)">
  <path d="m434.5 843.39c-42.91-4.4896-59.61-7.813-90.748-18.059-20.087-6.6097-20.145-6.6674-8.2604-8.2222 75.741-9.9092 145.88-52.915 200.02-122.65 27.478-35.389 21.797-41.645-33.457-36.839-87.55 7.6152-130.8-14.41-206.41-105.11-6.877-8.25-12.199-15.298-11.826-15.663 3.1467-3.0795 59.966-12.304 88.98-14.445 10.152-0.7493 10.556-1.3585 2.1974-3.3125-54.232-12.679-117.09-46.31-152.48-81.579-13.49-13.445-28.952-33.552-26.773-34.815 1.3278-0.7701 13.517-3.5801 21.253-4.8995 8.4343-1.4385 53.332-1.7725 69.25-0.51511 11.323 0.89446 11.8 0.3825 4-4.2984-59.888-35.942-105.38-66.753-129.47-87.679-13.313-11.568-30.028-29.215-29.349-30.985 0.29796-0.77648 0.13668-1.1614-0.3584-0.85546-2.9856 1.8452-21.514-34.348-18.915-36.948 0.6385-0.6385 21.332 1.6342 40.838 4.485 164.65 24.064 294.29 80.343 401.95 174.49 11.513 10.069 28.041 26.297 50.551 49.639 24.25 25.145 36.762 23.307 51.907-7.6223 36.283-74.099 116.33-105.23 213.64-83.096 23.055 5.2455 23.62 6.7578 6.9375 18.596-29.435 20.888-43.939 53.298-57.951 129.5-16.544 89.968-44.871 151.09-94 202.83-3.0435 3.2051-5.8482 6.3866-6.2327 7.07-2.4143 4.2917-35.542 32.788-51.12 43.973-65.551 47.066-161.75 74.594-234.18 67.015zm355.27-405.93c10.217-4.2687 14.788-15.289 10.351-24.952-6.876-14.974-28.983-13.564-34.178 2.1791-4.6855 14.197 10.231 28.454 23.828 22.773zm-178.27-5.5928c-35.051-35.364-67.879-62.562-114.5-94.859-37.072-25.683-55.996-54.555-76.362-116.5-7.4164-22.558-17.598-61.875-16.347-63.126 0.81422-0.81422 36.543 17.238 53.707 27.136 74.324 42.861 115.58 84.601 149.23 150.99 22.301 43.999 36.245 98.05 29.022 112.5-2.8273 5.6549-3.737 5.0618-24.748-16.138z"/>
 </g>
</svg>
